<svg width="0" height="0" >
  <symbol  xmlns="http://www.w3.org/2000/svg" viewBox="0 0 28 50" id="prev">
    <path fill='red' d="M1.06807 23.6279L24.1945 0.565417C24.9523 -0.189756 26.179 -0.188486 26.9354 0.569323C27.6913 1.32704 27.6894 2.55447 26.9315 3.31023L5.18163 25.0001L26.9323 46.6898C27.69 47.4457 27.692 48.6724 26.9362 49.4302C26.557 49.81 26.0603 50 25.5635 50C25.068 50 24.5732 49.8113 24.1946 49.4341L1.06807 26.3722C0.703134 26.0091 0.498348 25.5149 0.498348 25.0001C0.498348 24.4852 0.70372 23.9917 1.06807 23.6279Z"></path>
  </symbol>
    <symbol xmlns="http://www.w3.org/2000/svg" viewBox="0 0 25 25" id="check">
    <g clip-path="url(#clip0_1_121)">
      <path d="M23.046 13.5787V9.73882L24.0734 8.89507C24.1216 8.85737 24.1599 8.80852 24.1851 8.75272C24.2103 8.69693 24.2215 8.63586 24.2179 8.57476C24.2138 8.5134 24.1958 8.45376 24.1654 8.40032C24.1349 8.34688 24.0928 8.30102 24.0421 8.26616L12.714 0.844289C12.6495 0.804078 12.5751 0.782761 12.4991 0.782761C12.4232 0.782761 12.3487 0.804078 12.2843 0.844289L0.956172 8.26616C0.905499 8.30102 0.863366 8.34688 0.832925 8.40032C0.802484 8.45376 0.784525 8.5134 0.780391 8.57476C0.776757 8.63586 0.788011 8.69693 0.813186 8.75272C0.838361 8.80852 0.876705 8.85737 0.924922 8.89507L5.07727 12.2935V12.5162C4.5538 13.6282 4.28688 14.8436 4.29626 16.0726C4.30563 17.3016 4.59105 18.5128 5.13142 19.6167C5.6718 20.7206 6.45331 21.6889 7.41822 22.4502C8.38312 23.2114 9.50675 23.7461 10.7061 24.0148C11.9054 24.2834 13.1498 24.2791 14.3472 24.0023C15.5447 23.7254 16.6646 23.1829 17.6243 22.4151C18.5839 21.6472 19.3587 20.6735 19.8915 19.5659C20.4243 18.4583 20.7014 17.2452 20.7023 16.0162C20.7054 14.8059 20.4385 13.6102 19.921 12.5162V12.2935L22.2648 10.3755V13.5787L21.3077 15.4927C21.2185 15.6716 21.1764 15.8703 21.1856 16.07C21.1948 16.2696 21.2549 16.4636 21.3602 16.6335C21.4655 16.8034 21.6125 16.9436 21.7872 17.0406C21.962 17.1377 22.1586 17.1884 22.3585 17.188H22.9523C23.1522 17.1884 23.3488 17.1377 23.5236 17.0406C23.6983 16.9436 23.8453 16.8034 23.9506 16.6335C24.056 16.4636 24.116 16.2696 24.1252 16.07C24.1344 15.8703 24.0923 15.6716 24.0031 15.4927L23.046 13.5787ZM9.38196 15.6255C9.39512 14.0635 9.6752 12.5151 10.2101 11.0474C10.9708 10.9722 11.7348 10.9357 12.4991 10.938C13.2635 10.9357 14.0275 10.9722 14.7882 11.0474C15.3231 12.5151 15.6032 14.0635 15.6163 15.6255H9.38196ZM15.6163 16.4068C15.5997 17.6111 15.4358 18.8088 15.1281 19.9732C13.4249 19.3847 11.5734 19.3847 9.87024 19.9732C9.56253 18.8088 9.39855 17.6111 9.38196 16.4068H15.6163ZM12.4991 10.1568C9.82727 10.1568 7.14368 10.5826 5.85852 11.399V8.98491C5.85852 8.45366 8.20227 7.42241 12.4991 7.42241C16.796 7.42241 19.1398 8.45366 19.1398 8.98491V11.399C17.8546 10.5826 15.171 10.1568 12.4991 10.1568ZM9.33508 11.1529C8.86505 12.5979 8.61743 14.1061 8.60071 15.6255H5.08899C5.13727 14.6367 5.38577 13.6679 5.81946 12.7779C5.84572 12.7244 5.8591 12.6656 5.85852 12.606V12.5005C5.85852 12.1216 7.06946 11.4849 9.33508 11.1529ZM5.0968 16.4068H8.60071C8.61921 17.7084 8.80163 19.0024 9.14368 20.2584C8.50439 20.5469 7.90451 20.9157 7.35852 21.356C6.00177 20.0546 5.19282 18.2844 5.0968 16.4068V16.4068ZM7.96008 21.8755C8.39962 21.5324 8.87662 21.2402 9.38196 21.0044C9.64602 21.7918 10.0481 22.5259 10.5695 23.1724C9.62204 22.9181 8.73492 22.4771 7.96008 21.8755ZM12.4991 23.438C11.6241 23.438 10.714 22.4302 10.1046 20.7193C11.655 20.1776 13.3433 20.1776 14.8937 20.7193C14.2843 22.4302 13.3741 23.438 12.4991 23.438ZM14.4288 23.1724C14.9502 22.5259 15.3523 21.7918 15.6163 21.0044C16.1217 21.2402 16.5987 21.5324 17.0382 21.8755C16.2634 22.4771 15.3763 22.9181 14.4288 23.1724V23.1724ZM17.6398 21.356C17.0938 20.9157 16.4939 20.5469 15.8546 20.2584C16.1967 19.0024 16.3791 17.7084 16.3976 16.4068H19.9015C19.8055 18.2844 18.9965 20.0546 17.6398 21.356ZM16.3976 15.6255C16.3809 14.1061 16.1332 12.5979 15.6632 11.1529C17.9288 11.4849 19.1398 12.1216 19.1398 12.5005V12.606C19.1392 12.6656 19.1526 12.7244 19.1788 12.7779C19.6125 13.6679 19.861 14.6367 19.9093 15.6255H16.3976ZM19.921 11.2857V8.98491C19.921 7.44585 16.1866 6.64116 12.4991 6.64116C8.81164 6.64116 5.07727 7.44585 5.07727 8.98491V11.2857L1.83117 8.62945L12.4991 1.64116L23.1671 8.62945L19.921 11.2857ZM23.2843 16.2232C23.2501 16.2804 23.2014 16.3275 23.143 16.3598C23.0847 16.392 23.0189 16.4082 22.9523 16.4068H22.3585C22.2919 16.4082 22.2261 16.392 22.1678 16.3598C22.1094 16.3275 22.0607 16.2804 22.0265 16.2232C21.9909 16.1663 21.9704 16.1013 21.967 16.0343C21.9636 15.9673 21.9773 15.9006 22.007 15.8404L22.6554 14.5474L23.3038 15.8404C23.3335 15.9006 23.3472 15.9673 23.3438 16.0343C23.3404 16.1013 23.3199 16.1663 23.2843 16.2232V16.2232Z" ></path>
    </g>
    <defs>
      <clipPath id="clip0_1_121">
        <rect width="25" height="25" fill="white"></rect>
      </clipPath>
    </defs>
  </symbol>

  <symbol fill="none" xmlns="http://www.w3.org/2000/svg" viewBox="0 0 75 75" id="course-1">
    <g clip-path="url(#clip0_1_195)">
      <path d="M73.3363 12.6475L38.3488 0.147474C37.7963 -0.0475304 37.1937 -0.0475304 36.6413 0.147474L1.6625 12.6475C0.671101 13.0048 0.0102539 13.9455 0.0102539 14.9993C0.0102539 16.0532 0.671101 16.9939 1.6625 17.3512L18.75 23.4562V31.25C18.75 36.11 35.5813 36.25 37.5 36.25C39.4188 36.25 56.25 36.11 56.25 31.25V23.4562L60 22.125V25C60 26.3807 61.1193 27.5 62.5 27.5H65C66.3807 27.5 67.5 26.3807 67.5 25V21.25C67.4963 20.6711 67.3567 20.1013 67.0925 19.5862L73.3425 17.3512C74.3339 16.9939 74.9948 16.0532 74.9948 14.9993C74.9948 13.9455 74.3339 13.0048 73.3425 12.6475H73.3363ZM53.75 28.5C48.9888 26.3325 38.9563 26.25 37.5 26.25C36.0438 26.25 26.0113 26.3325 21.25 28.5V17.61C22 16.6475 27.895 15 37.5 15C47.105 15 53 16.6475 53.75 17.61V28.5ZM37.5 33.75C28.25 33.75 22.4413 32.2225 21.355 31.25C22.4413 30.2775 28.2525 28.75 37.5 28.75C46.7475 28.75 52.5588 30.2775 53.645 31.25C52.5588 32.2225 46.75 33.75 37.5 33.75V33.75ZM60.5863 19.2562L56.25 20.8025V17.5C56.25 12.64 39.4188 12.5 37.5 12.5C35.5813 12.5 18.75 12.64 18.75 17.5V20.8012L2.5 15L37.5175 2.49997L62.5 11.4275V17.73C61.7096 18.0109 61.0359 18.5481 60.5863 19.2562ZM65 25H62.5V21.25C62.5 20.5596 63.0597 20 63.75 20C64.4404 20 65 20.5596 65 21.25V25ZM65 17.68V12.3212L72.5 15L65 17.68Z" fill="#0ED984"></path>
      <path d="M71.25 38.7499C71.175 38.7497 71.1001 38.7564 71.0262 38.7699C59.9354 40.4942 48.7238 41.3235 37.5 41.2499C26.2762 41.3235 15.0646 40.4942 3.97375 38.7699C3.89982 38.7573 3.825 38.7506 3.75 38.7499C2.875 38.7499 0 39.7411 0 52.4999C0 65.2586 2.875 66.2499 3.75 66.2499C3.82506 66.2483 3.89988 66.2408 3.97375 66.2274C12.4959 64.8775 21.098 64.0933 29.7237 63.8799L27.2837 69.7324C26.9089 70.6695 27.1368 71.7402 27.8608 72.4434C28.5848 73.1466 29.6617 73.3432 30.5875 72.9411L31.5438 72.5324L31.9575 73.4836C32.3483 74.406 33.2545 75.0037 34.2563 74.9999H34.2875C35.2967 74.992 36.2015 74.376 36.5788 73.4399L38.75 68.2424L40.9137 73.4199C41.2877 74.3648 42.1963 74.9894 43.2125 74.9999H43.25C44.245 75.004 45.1462 74.4136 45.54 73.4999L45.9575 72.5411L46.8988 72.9449C47.8285 73.3553 48.9144 73.1598 49.6426 72.4508C50.3709 71.7418 50.5954 70.6616 50.21 69.7211L47.8175 63.9836C55.5945 64.259 63.3474 65.0104 71.0325 66.2336C71.1044 66.2455 71.1772 66.251 71.25 66.2499C72.125 66.2499 75 65.2586 75 52.4999C75 39.7411 72.125 38.7499 71.25 38.7499ZM41.5 43.7124C42.0191 45.6211 42.3214 47.5822 42.4013 49.5586C39.567 48.2407 36.2428 48.5497 33.7 50.3674C33.6361 48.1227 33.3484 45.89 32.8413 43.7024C34.3554 43.7341 35.9083 43.7499 37.5 43.7499C38.8663 43.7499 40.1925 43.7349 41.5 43.7124ZM38.75 63.7499C35.2982 63.7499 32.5 60.9517 32.5 57.4999C32.5 54.0481 35.2982 51.2499 38.75 51.2499C42.2018 51.2499 45 54.0481 45 57.4999C44.9959 60.95 42.2001 63.7458 38.75 63.7499ZM3.75 41.8749C4.70777 45.3317 5.12934 48.9151 5 52.4999C5.12934 56.0846 4.70777 59.668 3.75 63.1249C2.79223 59.668 2.37066 56.0846 2.5 52.4999C2.37066 48.9151 2.79223 45.3317 3.75 41.8749ZM6.275 63.3374C6.95875 61.3549 7.5 58.0374 7.5 52.4999C7.5 46.9624 6.95875 43.6449 6.27375 41.6599C14.217 42.7569 22.2144 43.4175 30.23 43.6386C30.9797 46.5307 31.323 49.5131 31.25 52.4999C31.25 52.6811 31.25 52.8536 31.2425 53.0274C29.7425 55.5169 29.5913 58.5928 30.84 61.2174L30.785 61.3499C22.584 61.5509 14.401 62.2153 6.275 63.3399V63.3374ZM34.2588 72.4999L33.3462 70.3999C33.0718 69.7693 32.3395 69.4789 31.7075 69.7499L29.6038 70.6799L32.535 63.6524C33.7384 64.8718 35.2737 65.7108 36.95 66.0649L34.2588 72.4999ZM45.7925 69.7499C45.1604 69.4789 44.4282 69.7693 44.1538 70.3999L43.2288 72.4786L40.5487 66.0624C42.2263 65.7081 43.7629 64.8688 44.9675 63.6486L47.8925 70.6486L45.7925 69.7499ZM71 63.6874C62.9691 62.4514 54.8712 61.7 46.75 61.4374L46.6612 61.2224C48.2333 57.9098 47.5593 53.9672 44.9762 51.3649C44.9666 48.7726 44.6672 46.1895 44.0837 43.6636C53.0972 43.4618 62.0882 42.676 71 41.3111C71.58 42.2961 72.5 46.1924 72.5 52.4999C72.5 58.8074 71.5738 62.7024 71 63.6874Z" fill="#0ED984"></path>
    </g>
    <defs>
      <clipPath id="clip0_1_195">
        <rect width="75" height="75" fill="white"></rect>
      </clipPath>
    </defs>
  </symbol>

  <symbol fill="none" xmlns="http://www.w3.org/2000/svg" viewBox="0 0 75 75" id="course-2">
    <g clip-path="url(#clip0_1_210)">
      <path d="M73.9014 68.0669H69.3765V50.9268C69.3765 50.32 68.8846 49.8281 68.2778 49.8281C67.6711 49.8281 67.1792 50.32 67.1792 50.9268V68.0669H57.5391V30.312H67.1792V55.7998C67.1792 56.4065 67.6711 56.8984 68.2778 56.8984C68.8846 56.8984 69.3765 56.4065 69.3765 55.7998V29.2134C69.3765 28.6066 68.8846 28.1147 68.2778 28.1147H56.4404C55.8337 28.1147 55.3418 28.6066 55.3418 29.2134V68.0669H52.8041V35.1324C52.8041 34.5256 52.3122 34.0337 51.7055 34.0337H39.8676C39.2609 34.0337 38.769 34.5256 38.769 35.1324V68.0669H36.2312V44.0108C36.2312 43.4041 35.7393 42.9122 35.1325 42.9122H23.2947C22.6879 42.9122 22.196 43.4041 22.196 44.0108V68.0669H19.6582V51.1135C19.6582 50.5068 19.1663 50.0149 18.5596 50.0149H6.72158C6.11484 50.0149 5.62295 50.5068 5.62295 51.1135V68.0669H1.09863C0.491894 68.0669 0 68.5588 0 69.1655V73.9014C0 74.5081 0.491894 75 1.09863 75H22.9639C23.5706 75 24.0625 74.5081 24.0625 73.9014C24.0625 73.2946 23.5706 72.8027 22.9639 72.8027H2.19727V70.2642H72.8027V72.8027H18.0908C17.4841 72.8027 16.9922 73.2946 16.9922 73.9014C16.9922 74.5081 17.4841 75 18.0908 75H73.9014C74.5081 75 75 74.5081 75 73.9014V69.1655C75 68.5588 74.5081 68.0669 73.9014 68.0669ZM40.9663 36.231H50.6068V68.0669H40.9663V36.231ZM24.3932 45.1094H34.0337V68.0669H24.3932V45.1094ZM7.82022 52.2122H17.4608V68.0669H7.82022V52.2122Z" fill="#3577F6"></path>
      <path d="M6.57422 40.0781H23.2939C24.264 40.0781 25.1956 39.6684 25.8499 38.9543L39.4686 24.0967H48.7456C49.6718 24.0967 50.5424 23.7363 51.1967 23.082L62.4448 11.8339V15.3045C62.4448 15.9113 62.9367 16.4032 63.5435 16.4032H68.2778C68.8846 16.4032 69.3765 15.9113 69.3765 15.3045V3.46582C69.3765 1.55479 67.8217 0 65.9106 0H54.0732C53.4665 0 52.9746 0.491894 52.9746 1.09863V5.83447C52.9746 6.44121 53.4665 6.93311 54.0732 6.93311H57.5426L47.3106 17.165H37.9438C36.9749 17.165 36.0437 17.5748 35.3895 18.2887L21.7692 33.1465H18.7397C18.133 33.1465 17.6411 33.6384 17.6411 34.2451C17.6411 34.8519 18.133 35.3438 18.7397 35.3438H22.2524C22.5604 35.3438 22.8542 35.2146 23.0622 34.9875L37.0091 19.7735C37.2485 19.5123 37.5891 19.3625 37.9437 19.3625H47.7655C48.0568 19.3625 48.3363 19.2467 48.5423 19.0406L60.9715 6.61143C61.2857 6.29722 61.3797 5.82466 61.2097 5.41421C61.0396 5.00361 60.639 4.73599 60.1947 4.73599H55.1717V2.19727H65.9105C66.61 2.19727 67.1791 2.76636 67.1791 3.46582V14.2061H64.6419V9.18164C64.6419 8.73735 64.3743 8.33672 63.9637 8.16665C63.5534 7.99688 63.0806 8.09062 62.7665 8.40483L49.6431 21.5282C49.4038 21.7676 49.0849 21.8994 48.7456 21.8994H38.9854C38.6773 21.8994 38.3836 22.0286 38.1754 22.2557L24.23 37.4697C23.9906 37.731 23.6495 37.8809 23.2939 37.8809H7.67285V35.3438H18.6128C19.2195 35.3438 19.7114 34.8519 19.7114 34.2451C19.7114 33.6384 19.2195 33.1465 18.6128 33.1465H6.57422C5.96748 33.1465 5.47559 33.6384 5.47559 34.2451V38.9795C5.47559 39.5862 5.96748 40.0781 6.57422 40.0781Z" fill="#3577F6"></path>
    </g>
    <defs>
      <clipPath id="clip0_1_210">
        <rect width="75" height="75" fill="white"></rect>
      </clipPath>
    </defs>
  </symbol>

  <symbol fill="none" xmlns="http://www.w3.org/2000/svg" viewBox="0 0 75 75" id="course-3">
    <path d="M69.1406 55.0781C69.1406 47.8137 64.391 41.6461 57.8367 39.4945C60.4043 37.8211 62.1094 34.9277 62.1094 31.6406C62.1094 26.4715 57.9035 22.2656 52.7344 22.2656C52.2387 22.2656 51.7559 22.316 51.2812 22.3898C51.3469 22.2 51.4301 22.0148 51.4875 21.8227L53.9062 21.2531V13.9617L51.4898 13.3922C51.2062 12.4406 50.8254 11.5219 50.3508 10.6465L51.6574 8.53359L46.5445 3.41953L44.4316 4.72734C43.5574 4.25508 42.6387 3.87305 41.6848 3.58828L41.1164 1.17188H33.8836L33.3152 3.58828C32.3625 3.87305 31.4426 4.25391 30.5684 4.72734L28.4555 3.41953L23.3426 8.53359L24.6492 10.6465C24.1758 11.5219 23.7949 12.4406 23.5102 13.3922L21.0938 13.9629V21.2555L23.5113 21.825C23.5687 22.016 23.652 22.2012 23.7176 22.391C23.2441 22.316 22.7613 22.2656 22.2656 22.2656C17.0965 22.2656 12.8906 26.4715 12.8906 31.6406C12.8906 34.9277 14.5957 37.8211 17.1633 39.4945C10.609 41.6461 5.85938 47.8137 5.85938 55.0781V59.7656H24.0551C22.1941 62.4258 21.0938 65.6555 21.0938 69.1406V73.8281H53.9062V69.1406C53.9062 65.6555 52.8059 62.4258 50.9449 59.7656H69.1406V55.0781ZM55.0781 42.1875C55.0781 44.093 54.0047 45.7031 52.7344 45.7031C51.4641 45.7031 50.3906 44.093 50.3906 42.1875C50.3906 41.8547 50.4375 41.5254 50.5078 41.1984C51.2414 41.0812 51.9844 41.0156 52.7344 41.0156C53.4949 41.0156 54.2367 41.093 54.9645 41.2102C55.0324 41.5336 55.0781 41.8594 55.0781 42.1875ZM37.5 52.7344C33.6223 52.7344 30.4688 49.5809 30.4688 45.7031C30.4688 41.8254 33.6223 38.6719 37.5 38.6719C41.3777 38.6719 44.5312 41.8254 44.5312 45.7031C44.5312 49.5809 41.3777 52.7344 37.5 52.7344ZM28.3781 42.4195C28.4777 42.4676 28.5785 42.5121 28.677 42.5625C28.3266 43.5469 28.125 44.6004 28.125 45.7031C28.125 46.1707 28.1707 46.6277 28.2375 47.0777L26.6766 50.5125L23.8359 46.9629L28.3781 42.4195ZM37.5 36.3281C34.268 36.3281 31.4133 37.9723 29.727 40.4684C28.9676 40.0805 28.1789 39.7582 27.3703 39.4934C29.9367 37.8188 31.6406 34.9266 31.6406 31.6406C31.6406 31.4227 31.623 31.2094 31.6078 30.9961C32.1633 31.241 32.7328 31.4531 33.3152 31.6277L33.8836 34.0441H41.1164L41.6848 31.6277C42.2672 31.4531 42.8367 31.241 43.3922 30.9961C43.377 31.2094 43.3594 31.4227 43.3594 31.6406C43.3594 34.9277 45.0633 37.8188 47.6297 39.4934C46.8223 39.757 46.0336 40.0816 45.2742 40.4695C43.5879 37.9734 40.732 36.3281 37.5 36.3281ZM59.7656 31.6406C59.7656 35.5184 56.6121 38.6719 52.7344 38.6719C48.8566 38.6719 45.7031 35.5184 45.7031 31.6406C45.7031 27.7629 48.8566 24.6094 52.7344 24.6094C56.6121 24.6094 59.7656 27.7629 59.7656 31.6406ZM25.5973 20.5641L25.4262 19.8668L23.4375 19.398V15.8168L25.425 15.3492L25.5961 14.652C25.8914 13.4473 26.3672 12.2953 27.0141 11.2312L27.3855 10.6184L26.3098 8.88047L28.8 6.39023L30.5379 7.46602L31.1508 7.09336C32.2125 6.44883 33.3645 5.9707 34.5727 5.67539L35.2699 5.5043L35.7398 3.51562H39.2602L39.7277 5.50313L40.425 5.67422C41.6332 5.9707 42.7852 6.44766 43.8469 7.09219L44.4598 7.46484L46.1977 6.38906L48.6879 8.8793L47.6133 10.6184L47.9848 11.2312C48.6316 12.2953 49.1074 13.4473 49.4027 14.652L49.5738 15.3492L51.5625 15.818V19.3992L49.575 19.8668L49.4039 20.5641C49.1672 21.5332 48.7828 22.4777 48.2965 23.3859C46.4367 24.3902 44.9531 26.0051 44.1152 27.9598L43.848 28.1215C42.7863 28.766 41.6344 29.2441 40.4262 29.5395L39.7289 29.7105L39.2613 31.698H35.741L35.2734 29.7094L34.5762 29.5383C33.3703 29.243 32.2184 28.766 31.1543 28.1203L30.8871 27.9586C30.0492 26.0027 28.5656 24.3879 26.7059 23.3836C26.2184 22.4777 25.834 21.5332 25.5973 20.5641V20.5641ZM15.2344 31.6406C15.2344 27.7629 18.3879 24.6094 22.2656 24.6094C26.1434 24.6094 29.2969 27.7629 29.2969 31.6406C29.2969 35.5184 26.1434 38.6719 22.2656 38.6719C18.3879 38.6719 15.2344 35.5184 15.2344 31.6406ZM25.9699 41.5137L22.2656 45.218L18.5719 41.5242C19.7508 41.202 20.9859 41.0156 22.2656 41.0156C23.5254 41.0156 24.7699 41.1867 25.9699 41.5137ZM20.6953 46.9617L17.8547 50.5113L14.5828 43.3137C15.0867 42.9832 15.6164 42.6926 16.1625 42.4277L20.6953 46.9617ZM8.20312 55.0781C8.20312 51.0258 9.93633 47.3789 12.6891 44.8102L17.3016 54.9574L22.2656 48.7512L27.2297 54.9574L29.3426 50.3086C30.0867 51.6211 31.1367 52.7367 32.3965 53.5582C29.9824 54.3504 27.8156 55.6852 26.0391 57.423H14.0625V50.3918H11.7188V57.423H8.20312V55.0781ZM37.5 55.0781C39.5367 55.0781 41.468 55.5223 43.2176 56.3051L37.5 69.6738L31.7824 56.3039C33.532 55.5223 35.4633 55.0781 37.5 55.0781ZM23.4375 69.1406C23.4375 64.2633 25.9348 59.9613 29.7164 57.4383L35.7234 71.4844H29.2969V64.4531H26.9531V71.4844H23.4375V69.1406ZM51.5625 71.4844H48.0469V64.4531H45.7031V71.4844H39.2766L45.2836 57.4383C49.0652 59.9613 51.5625 64.2633 51.5625 69.1406V71.4844ZM66.7969 57.4219H63.2812V50.3906H60.9375V57.4219H48.9598C47.1832 55.684 45.0152 54.3492 42.6023 53.557C45.1699 51.8836 46.875 48.9902 46.875 45.7031C46.875 44.6016 46.6734 43.548 46.323 42.5648C46.8914 42.273 47.4785 42.0199 48.0797 41.8102C48.0727 41.9355 48.0469 42.0609 48.0469 42.1875C48.0469 45.4184 50.1492 48.0469 52.7344 48.0469C55.3195 48.0469 57.4219 45.4184 57.4219 42.1875C57.4219 42.0656 57.3973 41.9461 57.3902 41.8242C62.8594 43.752 66.7969 48.9574 66.7969 55.0781V57.4219Z" fill="#D72DF3"></path>
    <path d="M37.5 22.2656C40.0852 22.2656 42.1875 20.1633 42.1875 17.5781C42.1875 14.993 40.0852 12.8906 37.5 12.8906C34.9148 12.8906 32.8125 14.993 32.8125 17.5781C32.8125 20.1633 34.9148 22.2656 37.5 22.2656ZM37.5 15.2344C38.7926 15.2344 39.8438 16.2855 39.8438 17.5781C39.8438 18.8707 38.7926 19.9219 37.5 19.9219C36.2074 19.9219 35.1562 18.8707 35.1562 17.5781C35.1562 16.2855 36.2074 15.2344 37.5 15.2344Z" fill="#D72DF3"></path>
    <path d="M37.5 26.9531C42.6691 26.9531 46.875 22.7473 46.875 17.5781C46.875 12.409 42.6691 8.20312 37.5 8.20312C32.3309 8.20312 28.125 12.409 28.125 17.5781C28.125 22.7473 32.3309 26.9531 37.5 26.9531ZM37.5 10.5469C41.3777 10.5469 44.5312 13.7004 44.5312 17.5781C44.5312 21.4559 41.3777 24.6094 37.5 24.6094C33.6223 24.6094 30.4688 21.4559 30.4688 17.5781C30.4688 13.7004 33.6223 10.5469 37.5 10.5469Z" fill="#D72DF3"></path>
  </symbol>
</svg>